<!DOCTYPE svg PUBLIC "-//W3C//DTD SVG 20010904//EN" "http://www.w3.org/TR/2001/REC-SVG-20010904/DTD/svg10.dtd">
<svg version="1.0" xmlns="http://www.w3.org/2000/svg" width="856px" height="490px" viewBox="0 0 8560 4900" preserveAspectRatio="xMidYMid meet">
<g id="layer101" fill="#000000" stroke="none">
 <path d="M6269 4896 c-2 -2 -17 -7 -34 -9 -29 -5 -154 -37 -277 -71 -32 -9 -82 -22 -110 -30 -111 -29 -357 -107 -384 -121 -16 -8 -35 -15 -42 -15 -7 0 -32 -8 -55 -18 -23 -10 -62 -26 -87 -36 -72 -29 -354 -169 -368 -183 -7 -7 -20 -13 -28 -13 -8 0 -14 -4 -14 -9 0 -5 -10 -13 -22 -17 -12 -3 -26 -11 -32 -16 -6 -5 -55 -40 -109 -79 -55 -38 -105 -75 -112 -82 -8 -6 -33 -28 -56 -47 -54 -45 -205 -196 -244 -246 -63 -78 -70 -84 -112 -84 -32 0 -48 -7 -77 -34 -20 -19 -36 -41 -36 -48 -1 -9 -3 -9 -9 2 -5 8 -11 58 -15 110 -8 114 -40 251 -71 300 -68 107 -200 161 -292 120 -42 -19 -84 -76 -78 -107 2 -10 4 -23 4 -30 1 -7 15 -28 32 -48 49 -55 46 -83 -20 -210 -75 -144 -101 -235 -94 -332 2 -39 0 -43 -20 -43 -13 0 -27 -4 -33 -8 -5 -5 -44 -21 -87 -36 -43 -15 -94 -36 -113 -47 -19 -10 -41 -19 -49 -19 -8 0 -15 -4 -15 -9 0 -5 -11 -12 -25 -15 -14 -4 -25 -11 -25 -16 0 -6 -6 -10 -14 -10 -8 0 -22 -7 -31 -17 -15 -14 -23 -15 -68 -4 -29 7 -83 19 -122 27 -66 14 -110 26 -275 75 -38 11 -72 20 -75 20 -3 -1 -19 6 -35 14 -17 9 -30 13 -30 10 0 -3 -9 -1 -20 5 -11 6 -20 15 -20 20 0 5 -41 78 -92 162 -79 133 -102 167 -146 223 -5 6 -13 18 -18 26 -34 60 -194 226 -299 313 -89 73 -87 71 -112 85 -12 6 -27 17 -35 24 -7 7 -44 30 -82 50 -37 21 -75 44 -83 52 -8 8 -26 18 -41 22 -15 3 -59 24 -98 45 -40 21 -81 40 -91 42 -10 2 -36 12 -58 21 -70 31 -114 46 -250 88 -114 35 -353 91 -435 101 -19 2 -78 12 -130 21 -52 10 -106 18 -120 20 -14 1 -43 5 -65 8 -22 3 -71 9 -110 12 -113 10 -165 15 -177 18 -31 7 -11 -29 59 -100 91 -93 93 -95 124 -154 13 -24 27 -45 32 -47 4 -2 7 -8 7 -13 0 -6 9 -29 20 -51 27 -55 71 -202 78 -258 14 -115 6 -236 -22 -335 -2 -5 -6 -23 -11 -40 -9 -33 -8 -32 -87 -195 -133 -277 -165 -381 -154 -518 6 -75 71 -292 88 -292 3 0 10 -15 13 -32 4 -18 11 -37 15 -43 4 -5 20 -50 35 -99 44 -145 38 -244 -30 -476 -12 -43 -57 -166 -64 -175 -11 -16 -27 -70 -56 -185 -39 -155 -38 -273 4 -404 31 -96 137 -328 153 -334 4 -2 8 -10 8 -18 0 -7 8 -29 19 -47 31 -55 73 -208 74 -267 0 -52 -8 -150 -17 -195 -5 -23 -20 -155 -20 -170 0 -5 4 -35 8 -65 16 -110 81 -197 183 -248 123 -61 233 -66 503 -22 137 22 191 26 322 24 87 -1 161 -5 166 -8 4 -2 44 -8 88 -11 88 -7 135 -11 240 -23 111 -12 301 -7 390 12 12 2 37 7 55 10 60 9 316 93 329 107 3 3 21 11 40 19 43 17 178 98 204 122 11 10 23 18 26 18 4 0 19 11 34 25 15 14 39 25 54 25 55 -1 214 -20 275 -34 195 -46 244 -57 267 -61 133 -26 292 -26 424 0 15 3 69 19 120 35 123 40 217 89 341 180 17 13 172 167 210 210 7 8 19 27 26 43 7 15 16 27 21 27 8 0 93 161 115 220 18 46 103 292 106 305 5 22 90 178 106 194 9 10 23 28 31 40 8 13 24 33 35 46 55 65 83 104 119 168 59 106 71 154 70 277 -1 113 -10 167 -45 280 l-29 95 32 27 c49 41 51 43 80 77 30 35 106 179 133 251 38 99 58 137 101 185 46 51 94 132 94 159 0 8 9 17 19 21 11 3 57 43 103 88 88 87 159 147 176 147 5 0 15 7 22 15 7 8 21 15 31 15 11 0 19 4 19 8 0 13 122 57 190 69 75 13 223 7 285 -11 6 -2 24 -6 40 -11 37 -10 132 -57 164 -82 67 -52 157 -155 201 -230 28 -46 50 -86 50 -88 0 -2 11 -29 25 -59 14 -30 25 -60 25 -66 0 -7 6 -26 14 -43 8 -18 40 -108 71 -202 31 -93 61 -174 66 -179 5 -6 9 -17 9 -25 0 -27 98 -209 145 -269 61 -79 203 -205 265 -237 19 -10 48 -28 63 -41 15 -13 45 -28 65 -34 20 -5 52 -19 70 -30 18 -11 37 -18 42 -15 5 3 11 1 14 -4 5 -7 125 -50 156 -56 3 -1 14 -4 25 -8 11 -3 31 -8 45 -11 14 -3 36 -8 50 -11 98 -23 219 -24 300 -3 58 14 93 32 156 79 29 21 54 35 58 32 3 -3 8 1 12 10 3 10 -9 48 -30 90 -33 69 -53 92 -156 181 -38 33 -83 48 -127 41 -25 -4 -47 -13 -50 -22 -4 -11 -16 -13 -52 -9 -89 11 -180 56 -290 144 -67 54 -171 174 -171 199 0 7 -4 13 -8 13 -12 0 -92 166 -92 192 0 7 -6 22 -13 33 -8 11 -19 43 -26 70 -7 28 -23 88 -36 135 -13 47 -35 130 -50 185 -15 55 -35 118 -45 140 -10 22 -21 55 -25 73 -3 17 -11 32 -16 32 -5 0 -9 6 -9 13 0 14 -39 94 -71 142 -10 17 -22 37 -26 45 -4 8 -26 42 -50 75 -99 139 -254 296 -364 369 -24 17 -48 35 -54 41 -5 7 -73 45 -150 86 -117 62 -247 115 -327 135 -10 2 -28 6 -40 10 -13 3 -34 7 -48 10 -14 3 -32 7 -40 9 -43 13 -163 20 -315 19 -164 -1 -184 -3 -380 -44 -38 -8 -105 -28 -150 -45 -24 -9 64 75 118 112 20 14 37 29 37 32 0 4 15 15 33 26 17 10 37 23 42 27 6 4 24 19 41 33 18 14 34 25 37 25 3 0 25 13 49 29 61 41 253 141 271 141 9 0 17 4 19 8 4 10 253 102 277 102 23 0 95 35 107 52 5 7 9 20 8 28 -1 8 -2 22 -3 31 -2 25 -84 53 -102 35z"/>
 </g>

</svg>