<?xml version="1.0" encoding="UTF-8" standalone="no"?>
<!-- Created with Inkscape (http://www.inkscape.org/) -->

<svg
   xmlns:dc="http://purl.org/dc/elements/1.1/"
   xmlns:cc="http://creativecommons.org/ns#"
   xmlns:rdf="http://www.w3.org/1999/02/22-rdf-syntax-ns#"
   xmlns:svg="http://www.w3.org/2000/svg"
   xmlns="http://www.w3.org/2000/svg"
   xmlns:sodipodi="http://sodipodi.sourceforge.net/DTD/sodipodi-0.dtd"
   xmlns:inkscape="http://www.inkscape.org/namespaces/inkscape"
   version="1.1"
   id="svg3753"
   width="63.360001"
   height="93.440002"
   viewBox="0 0 63.360001 93.440002"
   sodipodi:docname="IMG_0024.svg"
   inkscape:version="0.92.2 5c3e80d, 2017-08-06">
  <metadata
     id="metadata3759">
    <rdf:RDF>
      <cc:Work
         rdf:about="">
        <dc:format>image/svg+xml</dc:format>
        <dc:type
           rdf:resource="http://purl.org/dc/dcmitype/StillImage" />
        <dc:title></dc:title>
      </cc:Work>
    </rdf:RDF>
  </metadata>
  <defs
     id="defs3757" />
  <sodipodi:namedview
     pagecolor="#ffffff"
     bordercolor="#666666"
     borderopacity="1"
     objecttolerance="10"
     gridtolerance="10"
     guidetolerance="10"
     inkscape:pageopacity="0"
     inkscape:pageshadow="2"
     inkscape:window-width="1280"
     inkscape:window-height="687"
     id="namedview3755"
     showgrid="false"
     inkscape:zoom="5.0727738"
     inkscape:cx="31.68"
     inkscape:cy="46.720001"
     inkscape:window-x="0"
     inkscape:window-y="1"
     inkscape:window-maximized="1"
     inkscape:current-layer="svg3753" />
  <path
     style="fill:#000000;stroke-width:0.31999999"
     d="m 32.488102,85.389074 c -2.288,-0.139322 -4.595472,-0.398419 -5.127716,-0.575767 -0.532244,-0.17735 -1.712377,-0.463676 -2.622519,-0.636281 -2.334165,-0.442666 -3.797138,-1.117127 -4.391816,-2.02472 -1.108537,-1.691843 -1.854079,-8.252599 -1.971856,-17.352305 -0.04556,-3.52 -0.09639,-6.821139 -0.112963,-7.335862 -0.01657,-0.514723 0.09244,-1.018723 0.242236,-1.12 0.1498,-0.101277 0.593298,-0.762611 0.985551,-1.469635 0.96878,-1.746196 2.314389,-2.586484 5.159083,-3.221674 1.32,-0.294743 2.976,-0.708682 3.68,-0.919866 l 1.28,-0.383968 0.09399,-2.106928 c 0.06132,-1.374627 0.258649,-2.243581 0.567733,-2.500099 0.580997,-0.482182 0.999823,-0.154493 0.528457,0.413466 -0.18756,0.225996 -0.424496,1.345475 -0.526526,2.487734 -0.102029,1.142256 -0.103788,1.904922 -0.0039,1.69481 0.09988,-0.210116 0.381618,-0.305271 0.626084,-0.21146 0.244466,0.09381 0.775162,-0.07382 1.179325,-0.372512 l 0.734837,-0.543078 -0.96,0.198909 -0.96,0.198905 1.148315,-0.724371 c 0.631572,-0.398403 1.087572,-0.904371 1.013333,-1.124371 -0.07424,-0.22 0.02102,-0.4 0.211686,-0.4 0.190666,0 0.346666,0.144 0.346666,0.32 0,0.176 0.288,0.32 0.64,0.32 0.622486,0 0.623815,-0.01619 0.04856,-0.591443 -0.586867,-0.586867 -2.106864,-0.716391 -2.870264,-0.244583 -0.521262,0.322157 -0.478425,-0.282505 0.05115,-0.722016 0.236194,-0.196022 0.555447,-0.249654 0.709451,-0.11918 0.154004,0.13047 0.09649,-0.0035 -0.127815,-0.297703 -0.330842,-0.433952 -0.329422,-0.660461 0.0075,-1.2 0.228439,-0.365792 0.533204,-0.665075 0.677255,-0.665075 0.14405,0 0.191984,0.113142 0.106519,0.251427 -0.08546,0.138288 0.105138,0.251431 0.423562,0.251431 0.529524,0 0.538036,-0.06245 0.0997,-0.731431 -0.427301,-0.652141 -0.426121,-0.731427 0.01089,-0.731427 0.269575,0 0.562768,0.18 0.651539,0.4 0.09976,0.247238 0.171052,0.194253 0.186667,-0.138746 0.01642,-0.350185 -0.282731,-0.58638 -0.854737,-0.674851 -0.869322,-0.134454 -0.870951,-0.139129 -0.134202,-0.385321 0.525005,-0.175437 0.699226,-0.427309 0.588487,-0.850778 -0.08652,-0.330861 0.04217,-0.801043 0.285978,-1.044851 0.37772,-0.377722 0.373507,-0.470071 -0.02849,-0.62433 -0.274849,-0.105478 -0.47175,-0.593776 -0.47175,-1.169965 0,-0.619878 0.12756,-0.910093 0.341816,-0.777677 0.187998,0.116192 0.278042,0.377447 0.200096,0.58057 -0.07795,0.203126 0.04329,0.542144 0.269418,0.753379 0.321752,0.30056 0.449995,0.2828 0.589861,-0.08169 0.0983,-0.25616 0.04376,-0.465744 -0.121191,-0.465744 -0.164952,0 -0.217026,-0.216 -0.11572,-0.48 0.101306,-0.264 0.01629,-0.48 -0.188929,-0.48 -0.205216,0 -0.288011,-0.137712 -0.183988,-0.306026 0.104023,-0.168313 0.400522,-0.224905 0.658885,-0.125763 0.258364,0.09915 0.469752,0.01235 0.469752,-0.192861 0,-0.205216 0.127684,-0.294208 0.283742,-0.19776 0.156058,0.09645 0.470799,-0.05002 0.699424,-0.325504 0.343173,-0.413497 0.335543,-0.551574 -0.04374,-0.791574 -0.252685,-0.159887 -0.322626,-0.292915 -0.155426,-0.295609 0.1672,-0.0027 0.1312,-0.177699 -0.08,-0.388899 -0.2112,-0.2112 -0.384,-0.636656 -0.384,-0.945456 0,-0.3088 -0.36,-0.921453 -0.8,-1.361453 -0.44,-0.44 -0.8,-1.102186 -0.8,-1.471523 0,-0.369338 0.36,-1.20131 0.8,-1.848829 1.319084,-1.941206 0.906695,-5.572911 -0.941697,-8.293065 -0.984598,-1.448966 -1.096363,-3.650863 -0.272957,-5.377563 0.467843,-0.981076 0.486569,-1.289591 0.131765,-2.170856 -0.22747,-0.564991 -0.553211,-1.601128 -0.72387,-2.302528 C 32.85457,9.7751154 32.027915,8.7587103 31.604721,9.3524373 31.41809,9.6142732 31.377186,9.3932191 31.49032,8.7342034 31.639983,7.8624126 31.58397,7.7389416 31.117262,7.9117941 c -0.302038,0.1118634 -0.06827,-0.2061735 0.51948,-0.7067482 0.798366,-0.6799494 1.132225,-0.8072531 1.32005,-0.5033469 0.146973,0.2378087 0.518119,0.3221386 0.893464,0.2030087 0.437234,-0.1387728 0.707588,-0.033004 0.847483,0.3315571 0.112986,0.2944355 0.284016,0.4567494 0.380068,0.3606976 0.09605,-0.096052 -0.0099,-0.4701136 -0.235419,-0.831248 -0.641311,-1.0269024 -0.02002,-1.2300672 0.859844,-0.2811728 l 0.791615,0.8537219 -0.01478,10.5821575 c -0.0081,5.820186 0.07108,10.721077 0.176012,10.890868 0.334631,0.541443 0.731314,0.333842 1.020643,-0.534146 0.256772,-0.770317 0.32473,-0.799079 0.789618,-0.334191 0.464888,0.464888 0.497119,-0.335885 0.374495,-9.304343 C 38.737573,11.159312 38.605755,8.7084034 38.285557,8.3328002 37.465601,7.3709653 37.331439,6.8741585 38.065858,7.5192446 c 1.501138,1.3185453 1.621398,1.9701831 1.636027,8.8648644 0.0076,3.57274 0.141104,8.799892 0.29672,11.615892 1.062858,19.233162 1.027174,18.824115 1.68896,19.36 0.395718,0.320432 0.686419,1.059338 0.794698,2.019974 0.0939,0.833095 0.300585,1.594976 0.459302,1.693066 0.158714,0.09809 1.227901,0.311373 2.375971,0.473962 1.148071,0.162585 2.530029,0.524502 3.071018,0.804259 1.103536,0.570659 3.459549,2.859254 3.459549,3.360554 0,0.179276 0.12,0.251792 0.266665,0.161148 0.146669,-0.09065 0.288263,0.0089 0.31466,0.221114 0.163552,1.315258 0.479523,2.441261 0.654515,2.332461 0.112288,-0.06981 0.13216,2.529245 0.04416,5.77568 -0.16209,5.979642 -0.272528,6.479584 -1.44,6.518704 -0.176,0.0059 -0.964695,0.447511 -1.752656,0.981357 -0.85032,0.576099 -1.695783,0.911267 -2.08,0.824579 -0.356039,-0.08033 -0.891824,-0.05173 -1.190634,0.06355 -0.498262,0.192227 -0.476326,0.408502 0.264688,2.609597 0.444387,1.32 1.325318,3.605139 1.957626,5.078089 1.470748,3.426084 1.323206,3.76441 -1.577338,3.6169 -1.900864,-0.09667 -5.449117,0.443686 -7.781686,1.185062 -1.642303,0.521984 -2.746625,0.570458 -7.040001,0.309021 z m 8.301543,-3.517879 c 1.886736,-0.297065 2.139926,-0.409456 1.68,-0.745763 -0.691523,-0.505654 -0.680678,-0.682845 0.09259,-1.512851 0.541917,-0.58168 0.751315,-0.627264 1.44,-0.313479 0.790045,0.359969 0.805869,0.341338 0.805869,-0.948835 0,-2.050896 -0.644637,-3.807869 -1.519098,-4.140339 -0.417677,-0.1588 -0.671558,-0.43088 -0.564179,-0.604624 0.278006,-0.449824 -5.318808,-0.343664 -5.89815,0.111875 -0.305111,0.239911 -0.390892,0.244912 -0.253216,0.01475 0.278444,-0.465465 -2.053924,-0.549699 -3.611036,-0.130413 -0.654924,0.176352 -1.587661,0.632836 -2.072748,1.014404 -0.966967,0.760617 -2.063482,2.888998 -2.074546,4.026777 -0.0062,0.637418 0.06679,0.676615 0.618419,0.332115 0.70303,-0.439049 0.806554,-0.383068 1.108125,0.599213 0.168515,0.548893 0.0095,0.814279 -0.760248,1.268996 -0.535328,0.316236 -0.973324,0.68792 -0.973324,0.825974 0,0.49985 1.194539,0.235834 1.76,-0.388995 0.660924,-0.730314 1.033877,-0.77857 2.299168,-0.297498 0.861992,0.327735 0.873238,0.358336 0.260832,0.709741 -0.60258,0.34577 -0.583871,0.380493 0.32,0.593904 1.105688,0.261062 4.135666,0.0898 7.341543,-0.414954 z M 38.667226,47.832459 c -0.270041,-0.270042 -3.459124,-0.337607 -3.459124,-0.07329 0,0.132455 0.816,0.240829 1.813334,0.240829 0.997333,0 1.737939,-0.0754 1.64579,-0.167542 z m -4.200527,-1.172458 c -0.102152,-0.255274 -0.177979,-0.17945 -0.193334,0.193334 -0.01389,0.337332 0.06174,0.526333 0.168071,0.42 0.106333,-0.106336 0.117702,-0.382336 0.02526,-0.613334 z m 2.021403,-3.571034 c -0.44,-0.231878 -0.867829,-0.365926 -0.950732,-0.297884 -0.225045,0.18471 0.719005,0.719091 1.270732,0.719302 0.264565,9.9e-5 0.120942,-0.189043 -0.32,-0.421418 z m -0.42389,-3.619523 c -0.115806,-0.115808 -0.03181,-0.430768 0.186667,-0.699914 0.336155,-0.414124 0.304171,-0.454422 -0.208039,-0.262118 -0.51768,0.194358 -0.54581,0.155606 -0.194399,-0.267818 0.225974,-0.272284 0.318342,-0.58758 0.205262,-0.700659 -0.337834,-0.337833 -0.624583,0.155389 -0.685481,1.179056 -0.03979,0.668797 0.08965,0.96201 0.424658,0.96201 0.265039,0 0.387139,-0.09475 0.271332,-0.210557 z m 1.710308,-4.437178 c 0.588259,-0.708806 0.253517,-0.790291 -0.406418,-0.09893 -0.308,0.322666 -0.433632,0.586666 -0.279182,0.586666 0.15445,0 0.46297,-0.219479 0.6856,-0.487736 z m -0.0798,-2.872265 c -0.03642,-0.44 -0.250803,-0.8 -0.476416,-0.8 -0.225613,0 -0.410206,0.36 -0.410206,0.8 0,0.495104 0.181573,0.8 0.476416,0.8 0.312499,0 0.453635,-0.275248 0.410206,-0.8 z M 18.781436,81.066667 c -0.117334,-0.117331 -0.213334,-0.415619 -0.213334,-0.662857 0,-0.372487 0.08226,-0.367261 0.48,0.03046 0.264,0.264 0.48,0.562288 0.48,0.662857 0,0.250474 -0.485535,0.230656 -0.746666,-0.03046 z M 18.248102,55.520001 c 0,-0.264 0.139481,-0.48 0.309957,-0.48 0.170476,0 0.22707,0.216 0.125763,0.48 -0.101306,0.264 -0.240786,0.48 -0.309956,0.48 -0.06917,0 -0.125764,-0.216 -0.125764,-0.48 z m 25.920001,-6.898886 c 0,-0.186388 0.144,-0.249888 0.32,-0.141114 0.176,0.108774 0.32,0.261274 0.32,0.338886 0,0.07761 -0.144,0.141114 -0.32,0.141114 -0.176,0 -0.32,-0.152499 -0.32,-0.338886 z M 31.231538,38.810938 c 0.09241,-3.293987 0.232946,-6.053987 0.312295,-6.133334 0.07935,-0.07935 0.144269,2.615731 0.144269,5.989062 0,3.774676 -0.120097,6.133335 -0.312295,6.133335 -0.197921,0 -0.250758,-2.193414 -0.144269,-5.989063 z m 0.161827,-11.157604 c 0.01535,-0.372782 0.09118,-0.448608 0.193334,-0.193333 0.09244,0.231 0.08107,0.507 -0.02526,0.613333 -0.106334,0.106333 -0.181965,-0.08267 -0.168071,-0.42 z M 31.490265,13.6 c 6.4e-4,-2.112 0.05242,-2.934357 0.115088,-1.82746 0.06267,1.106897 0.06215,2.834897 -0.0012,3.84 -0.0633,1.005103 -0.114569,0.09946 -0.113936,-2.01254 z m 6.303099,-1.626666 c 0.01535,-0.372782 0.09118,-0.448608 0.193333,-0.193334 0.09244,0.231 0.08107,0.507 -0.02526,0.613334 -0.106333,0.106333 -0.181965,-0.08267 -0.16807,-0.42 z M 26.568102,11.52 c 0,-0.176 0.144,-0.32 0.32,-0.32 0.176,0 0.32,0.144 0.32,0.32 0,0.176 -0.144,0.32 -0.32,0.32 -0.176,0 -0.32,-0.144 -0.32,-0.32 z M 37.793366,9.0933336 c 0.01535,-0.3727817 0.09118,-0.448608 0.193333,-0.1933334 0.09244,0.231 0.08107,0.507 -0.02526,0.6133334 -0.106333,0.1063332 -0.181965,-0.082667 -0.16807,-0.42 z M 35.233365,4.6133335 c 0.01535,-0.3727817 0.09118,-0.448608 0.193334,-0.1933334 0.09244,0.231 0.08107,0.507 -0.02526,0.6133334 -0.106334,0.1063332 -0.181965,-0.082667 -0.16807,-0.42 z"
     id="path3763"
     inkscape:connector-curvature="0" />
</svg>
